<svg width="102" height="63" viewBox="0 0 102 63" fill="none" xmlns="http://www.w3.org/2000/svg">
<path d="M51 21.6471C47.8812 21.6471 45.353 19.1188 45.353 16C45.353 12.8812 47.8812 10.3529 51 10.3529C54.1188 10.3529 56.6471 12.8812 56.6471 16C56.6471 19.1188 54.1188 21.6471 51 21.6471Z" fill="#AE9AFF"/>
<path d="M40.1055 18.2821C38.4868 18.5623 37.3773 20.0973 37.9987 21.5912C38.8662 23.6768 40.2501 25.5349 42.0443 26.987C44.6099 29.0631 47.8458 30.1725 51.1701 30.1156C54.4945 30.0586 57.689 28.839 60.1793 26.6761C61.9207 25.1636 63.2378 23.2591 64.0306 21.1451C64.5985 19.6309 63.435 18.1348 61.8074 17.9102C60.1798 17.6857 58.7185 18.8487 57.9145 20.2562C57.4787 21.019 56.913 21.7111 56.2353 22.2998C54.8065 23.5408 52.9736 24.2405 51.0663 24.2732C49.1589 24.3058 47.3023 23.6694 45.8303 22.4781C45.132 21.913 44.5421 21.2407 44.0794 20.4932C43.226 19.1142 41.7241 18.0019 40.1055 18.2821Z" fill="#AE9AFF"/>
<path d="M65.0084 17.4048C65.0805 16.8399 65.1176 16.2644 65.1176 15.6805C65.1176 8.05998 58.797 1.88235 51 1.88235C43.203 1.88235 36.8823 8.05998 36.8823 15.6805C36.8823 16.4299 36.9435 17.1653 37.0611 17.8824C37.7096 17.0147 38.7216 16.3954 39.8148 16.207C40.9976 16.0031 42.0725 16.2835 42.9814 16.8076C42.9277 16.4394 42.8999 16.0631 42.8999 15.6805C42.8999 11.3082 46.5265 7.76375 51 7.76375C55.4735 7.76375 59.1 11.3082 59.1 15.6805C59.1 15.9687 59.0842 16.2534 59.0535 16.5337C59.9432 15.9788 61.0077 15.6617 62.1972 15.8252C63.2962 15.9761 64.3294 16.5602 65.0084 17.4048Z" fill="#5429FF"/>
<path d="M1.27841 59V47.3636H5.42614C6.33144 47.3636 7.08144 47.5284 7.67614 47.858C8.27083 48.1875 8.71591 48.6383 9.01136 49.2102C9.30682 49.7784 9.45455 50.4186 9.45455 51.1307C9.45455 51.8466 9.30492 52.4905 9.00568 53.0625C8.71023 53.6307 8.26326 54.0814 7.66477 54.4148C7.07008 54.7443 6.32197 54.9091 5.42045 54.9091H2.56818V53.4205H5.26136C5.83333 53.4205 6.29735 53.322 6.65341 53.125C7.00947 52.9242 7.27083 52.6515 7.4375 52.3068C7.60417 51.9621 7.6875 51.5701 7.6875 51.1307C7.6875 50.6913 7.60417 50.3011 7.4375 49.9602C7.27083 49.6193 7.00758 49.3523 6.64773 49.1591C6.29167 48.9659 5.82197 48.8693 5.23864 48.8693H3.03409V59H1.27841ZM21.0648 47.3636V59H19.4512L13.5364 50.4659H13.4285V59H11.6728V47.3636H13.2978L19.2182 55.9091H19.3262V47.3636H21.0648ZM23.7859 59V47.3636H31.0018V48.875H25.5416V52.4205H30.4848V53.9261H25.5416V59H23.7859ZM32.747 48.875V47.3636H41.7527V48.875H38.122V59H36.372V48.875H32.747ZM48.2972 47.3636H50.4278L54.1324 56.4091H54.2687L57.9733 47.3636H60.104V59H58.4335V50.5795H58.3256L54.8937 58.983H53.5074L50.0756 50.5739H49.9676V59H48.2972V47.3636ZM65.2199 59.1932C64.6669 59.1932 64.1669 59.0909 63.7199 58.8864C63.273 58.678 62.9188 58.3769 62.6574 57.983C62.3999 57.589 62.2711 57.1061 62.2711 56.5341C62.2711 56.0417 62.3658 55.6364 62.5552 55.3182C62.7446 55 63.0002 54.7481 63.3222 54.5625C63.6442 54.3769 64.004 54.2367 64.4018 54.142C64.7995 54.0473 65.2048 53.9754 65.6177 53.9261C66.1404 53.8655 66.5646 53.8163 66.8904 53.7784C67.2162 53.7367 67.4529 53.6705 67.6006 53.5795C67.7484 53.4886 67.8222 53.3409 67.8222 53.1364V53.0966C67.8222 52.6004 67.6821 52.2159 67.4018 51.9432C67.1252 51.6705 66.7124 51.5341 66.1631 51.5341C65.5912 51.5341 65.1404 51.661 64.8109 51.9148C64.4851 52.1648 64.2597 52.4432 64.1347 52.75L62.5381 52.3864C62.7275 51.8561 63.004 51.428 63.3677 51.1023C63.7351 50.7727 64.1574 50.5341 64.6347 50.3864C65.112 50.2348 65.6139 50.1591 66.1404 50.1591C66.4889 50.1591 66.8582 50.2008 67.2484 50.2841C67.6423 50.3636 68.0097 50.5114 68.3506 50.7273C68.6953 50.9432 68.9775 51.2519 69.1972 51.6534C69.4169 52.0511 69.5268 52.5682 69.5268 53.2045V59H67.8677V57.8068H67.7995C67.6896 58.0265 67.5249 58.2424 67.3052 58.4545C67.0855 58.6667 66.8033 58.8428 66.4586 58.983C66.1139 59.1231 65.701 59.1932 65.2199 59.1932ZM65.5893 57.8295C66.059 57.8295 66.4605 57.7367 66.7938 57.5511C67.1309 57.3655 67.3866 57.1231 67.5609 56.8239C67.7389 56.5208 67.8279 56.197 67.8279 55.8523V54.7273C67.7673 54.7879 67.6499 54.8447 67.4756 54.8977C67.3052 54.947 67.1101 54.9905 66.8904 55.0284C66.6707 55.0625 66.4567 55.0947 66.2484 55.125C66.04 55.1515 65.8658 55.1742 65.7256 55.1932C65.3961 55.2348 65.0949 55.3049 64.8222 55.4034C64.5533 55.5019 64.3374 55.6439 64.1745 55.8295C64.0154 56.0114 63.9359 56.2538 63.9359 56.5568C63.9359 56.9773 64.0912 57.2955 64.4018 57.5114C64.7124 57.7235 65.1082 57.8295 65.5893 57.8295ZM71.9495 59V50.2727H73.5916V51.6591H73.6825C73.8416 51.1894 74.1219 50.8201 74.5234 50.5511C74.9287 50.2784 75.387 50.142 75.8984 50.142C76.0045 50.142 76.1295 50.1458 76.2734 50.1534C76.4211 50.161 76.5367 50.1705 76.62 50.1818V51.8068C76.5518 51.7879 76.4306 51.767 76.2564 51.7443C76.0821 51.7178 75.9079 51.7045 75.7336 51.7045C75.3321 51.7045 74.9742 51.7898 74.6598 51.9602C74.3492 52.1269 74.103 52.3598 73.9211 52.6591C73.7393 52.9545 73.6484 53.2917 73.6484 53.6705V59H71.9495ZM79.8127 56.0398L79.8013 53.9659H80.0968L83.574 50.2727H85.6081L81.6422 54.4773H81.3752L79.8127 56.0398ZM78.2502 59V47.3636H79.949V59H78.2502ZM83.7615 59L80.6365 54.8523L81.807 53.6648L85.8468 59H83.7615ZM90.7184 59.1761C89.8586 59.1761 89.118 58.9924 88.4968 58.625C87.8794 58.2538 87.4021 57.733 87.065 57.0625C86.7317 56.3883 86.565 55.5985 86.565 54.6932C86.565 53.7992 86.7317 53.0114 87.065 52.3295C87.4021 51.6477 87.8718 51.1155 88.4741 50.733C89.0802 50.3504 89.7885 50.1591 90.5991 50.1591C91.0915 50.1591 91.5688 50.2405 92.0309 50.4034C92.493 50.5663 92.9078 50.822 93.2752 51.1705C93.6427 51.5189 93.9324 51.9716 94.1445 52.5284C94.3567 53.0814 94.4627 53.7538 94.4627 54.5455V55.1477H87.5252V53.875H92.798C92.798 53.428 92.707 53.0322 92.5252 52.6875C92.3434 52.339 92.0877 52.0644 91.7582 51.8636C91.4324 51.6629 91.0499 51.5625 90.6105 51.5625C90.1332 51.5625 89.7165 51.6799 89.3605 51.9148C89.0082 52.1458 88.7355 52.4489 88.5423 52.8239C88.3529 53.1951 88.2582 53.5985 88.2582 54.0341V55.0284C88.2582 55.6117 88.3605 56.108 88.565 56.517C88.7733 56.9261 89.0631 57.2386 89.4343 57.4545C89.8055 57.6667 90.2392 57.7727 90.7355 57.7727C91.0574 57.7727 91.351 57.7273 91.6161 57.6364C91.8813 57.5417 92.1105 57.4015 92.3036 57.2159C92.4968 57.0303 92.6445 56.8011 92.7468 56.5284L94.3548 56.8182C94.226 57.2917 93.9949 57.7064 93.6616 58.0625C93.332 58.4148 92.9173 58.6894 92.4173 58.8864C91.9211 59.0795 91.3548 59.1761 90.7184 59.1761ZM100.582 50.2727V51.6364H95.8145V50.2727H100.582ZM97.0929 48.1818H98.7918V56.4375C98.7918 56.767 98.841 57.0152 98.9395 57.1818C99.038 57.3447 99.1649 57.4564 99.3202 57.517C99.4793 57.5739 99.6516 57.6023 99.8372 57.6023C99.9736 57.6023 100.093 57.5928 100.195 57.5739C100.297 57.5549 100.377 57.5398 100.434 57.5284L100.741 58.9318C100.642 58.9697 100.502 59.0076 100.32 59.0455C100.138 59.0871 99.9111 59.1098 99.6384 59.1136C99.1914 59.1212 98.7747 59.0417 98.3884 58.875C98.002 58.7083 97.6895 58.4508 97.4509 58.1023C97.2122 57.7538 97.0929 57.3163 97.0929 56.7898V48.1818Z" fill="black"/>
</svg>
